<?xml version="1.0" encoding="UTF-8"?><!DOCTYPE svg PUBLIC "-//W3C//DTD SVG 1.1//EN" "http://www.w3.org/Graphics/SVG/1.1/DTD/svg11.dtd"><svg xmlns="http://www.w3.org/2000/svg"><symbol id="embed-logo-amex" viewBox="0 0 100 60"><title>American Express</title><g fill="none" fill-rule="evenodd"><rect fill="#007CC2" width="100" height="60" rx="8"/><path d="M83.31 29.96l5.49-6.752 4.194-5.16h-12.89l-.92 1.074-2.442 2.848-2.27-2.787-.923-1.134H46.845l-.82 1.848-2.396 5.408-2.413-5.414-.82-1.842H28.602v4.6l-1.15-2.743L26.65 18H17.04l-.8 1.91-7.4 17.706L7.006 42h11.282l.752-2.035.88-2.38h3.915l.88 2.38.754 2.034h13.575v-1.466L39.678 42h7.94l.177-.44V42H72.86l.918-1.04 2.733-3.1 2.688 3.085.92 1.054h12.8l-4.102-5.138-5.505-6.9zm-27.538 8.89h-4.9l-.01-13.04-5.3 13.04h-3.878l-5.716-13.24v13.24h-8.37l-1.633-4.414h-8.168l-1.634 4.415H11.67l7.4-17.704h5.55l7.058 16.822V21.195h6.738l5.224 11.72 5.19-11.72h6.943V38.85zm25.727 0l-4.972-5.704-5.035 5.705H58.63V21.196h13.476l4.576 5.62 4.817-5.62h4.933l-7.11 8.747 7.11 8.91H81.5zM62.918 24.727l-.002 3.752h5.922v3.09h-5.922v3.75h6.33l4.658-5.376-4.047-5.216h-6.942zM19.242 30.72h5.107l-2.605-5.95-2.502 5.95z" fill="#FFF"/></g></symbol><symbol id="embed-logo-diners" viewBox="0 0 112 89"><title>Diners</title><g fill="none" fill-rule="evenodd"><path d="M65.613 89C89.865 89.115 112 69.16 112 44.885 112 18.34 89.865-.01 65.613 0h-20.87C20.2-.01 0 18.346 0 44.886 0 69.166 20.2 89.116 44.742 89h20.87z" fill="#0079BE"/><path d="M44.84 3.678C22.416 3.685 4.244 21.918 4.24 44.42c.005 22.5 18.177 40.73 40.603 40.737C67.273 85.15 85.45 66.92 85.45 44.42 85.45 21.918 67.273 3.685 44.84 3.678zM19.105 44.42c.02-10.996 6.868-20.372 16.522-24.098v48.192c-9.654-3.724-16.5-13.096-16.522-24.094zm34.948 24.104V20.32c9.658 3.717 16.516 13.1 16.533 24.1-.017 11.005-6.875 20.38-16.533 24.104z" fill="#FFF"/></g></symbol><symbol id="embed-logo-discover" viewBox="0 0 162 102"><title>Discover</title><g fill="none" fill-rule="evenodd"><g transform="translate(1 1)"><rect stroke="#D97B16" stroke-width="3" fill="#FFF" width="160" height="100" rx="14"/><path d="M148.93 98c5.237 0 10.07-5.587 10.07-10.825V59s-15.608 27.48-72.314 39h62.244z" fill="#D97B16"/></g><g transform="translate(14 41)"><path d="M.134.884h7.533c1.26 0 2.474.193 3.645.58 1.17.388 2.204.977 3.104 1.77.9.79 1.62 1.785 2.16 2.982.54 1.198.81 2.606.81 4.226 0 1.638-.31 3.055-.93 4.252-.622 1.198-1.423 2.187-2.404 2.97-.98.784-2.07 1.368-3.267 1.755-1.197.387-2.37.58-3.524.58H.135V.884zm5.94 16.038c1.062 0 2.065-.12 3.01-.364.945-.244 1.768-.62 2.47-1.134.703-.514 1.256-1.18 1.66-1.998.406-.82.608-1.814.608-2.984 0-1.152-.18-2.142-.54-2.97-.36-.828-.86-1.498-1.498-2.012-.64-.513-1.395-.89-2.268-1.133-.873-.244-1.83-.365-2.875-.365H3.537v12.96h2.538zM20.546.884h3.402V20h-3.402V.884zm16.956 4.104c-.36-.522-.842-.904-1.445-1.148-.603-.243-1.237-.364-1.904-.364-.396 0-.778.045-1.147.135-.37.09-.702.235-1 .433-.296.198-.534.454-.715.77-.18.315-.268.688-.268 1.12 0 .648.224 1.143.675 1.485.45.342 1.007.64 1.674.89.667.253 1.395.496 2.188.73.792.234 1.52.558 2.187.972.666.414 1.223.963 1.674 1.647.45.684.673 1.593.673 2.727 0 1.026-.188 1.92-.567 2.686-.378.766-.886 1.4-1.525 1.904-.638.504-1.38.882-2.227 1.134-.846.252-1.736.378-2.673.378-1.188 0-2.33-.198-3.428-.594-1.1-.396-2.043-1.062-2.835-1.998L29.4 15.41c.416.63.96 1.12 1.635 1.47.675.353 1.39.528 2.146.528.398 0 .793-.054 1.19-.162.396-.108.755-.27 1.08-.486.324-.216.584-.49.782-.824.2-.333.297-.715.297-1.147 0-.703-.225-1.243-.675-1.62-.45-.38-1.008-.698-1.674-.96-.666-.26-1.394-.508-2.186-.742-.793-.234-1.52-.553-2.188-.96-.666-.404-1.223-.943-1.674-1.618-.45-.676-.675-1.58-.675-2.714 0-.99.203-1.845.608-2.565.405-.72.936-1.317 1.593-1.794.657-.478 1.408-.833 2.255-1.067.846-.235 1.71-.352 2.591-.352 1.01 0 1.985.153 2.93.46.945.305 1.795.81 2.552 1.51 0 0-.757-.7 0 0l-2.484 2.62zm19.25.378c-.702-.756-1.38-1.26-2.038-1.512-.657-.252-1.318-.378-1.984-.378-.99 0-1.886.175-2.687.527-.8.35-1.49.836-2.066 1.457-.576.622-1.02 1.346-1.336 2.174-.314.828-.47 1.72-.47 2.673-.002 1.026.156 1.97.47 2.835.316.864.76 1.61 1.337 2.24.577.63 1.265 1.126 2.066 1.486.8.36 1.696.54 2.687.54.774 0 1.525-.184 2.254-.553.73-.37 1.408-.96 2.038-1.77l2.81 2c-.866 1.187-1.918 2.05-3.16 2.59-1.243.54-2.565.81-3.97.81-1.476 0-2.83-.237-4.063-.715-1.234-.477-2.296-1.15-3.187-2.024-.89-.874-1.588-1.922-2.093-3.146-.504-1.224-.755-2.583-.755-4.077 0-1.53.25-2.92.756-4.171.505-1.252 1.202-2.318 2.093-3.2.89-.882 1.953-1.56 3.186-2.038C49.87.636 51.225.398 52.702.398c1.296 0 2.497.23 3.604.69 1.107.458 2.137 1.236 3.09 2.334.002 0-.953-1.098.002 0L56.75 5.366zM82.403.884h3.915L91.53 15.33 96.898.883h3.673L92.853 20h-2.944L82.4.884zm20.224 0h12.662v3.078h-9.26V8.66h8.774v3.078h-8.775v5.184h9.748V20h-13.15V.884zm16.496 0h6.642c.92 0 1.805.085 2.66.257.855.172 1.615.464 2.28.878.668.414 1.198.972 1.594 1.674.397.702.595 1.593.595 2.673 0 1.386-.383 2.547-1.148 3.483-.765.936-1.858 1.503-3.28 1.7L133.54 20h-4.103l-4.43-8.1h-2.483V20h-3.4V.884zm6.05 8.1c.485 0 .97-.022 1.457-.068.485-.045.93-.152 1.335-.324.405-.17.733-.43.986-.783.253-.352.38-.842.38-1.472-.002-.558-.118-1.008-.353-1.35-.234-.342-.54-.598-.917-.77-.38-.17-.797-.283-1.256-.337-.46-.053-.904-.08-1.337-.08h-2.942v5.184h2.645z" fill="#000"/><circle fill="#D97B16" cx="72.05" cy="10.45" r="10.05"/></g></g></symbol><symbol id="embed-logo-jcb" viewBox="0 0 101 75"><title>logo-jcb</title><g fill="none" fill-rule="evenodd"><g fill="#00A651"><path d="M100.97 33.336c.005 4.783.01 9.566.012 14.35l.012 14.817c0 .373.668 12.497-12.536 12.495L70.008 75V50.033h19.657c1.585 0 7.508-.872 7.508-7.068S90.278 37.1 90.278 37.1s5.635-.256 5.635-5.88c0-3.838-3.235-5.577-5.635-6l-.364-.058c-.91-.14-1.524-.15-2.06-.162 0 .013-17.847.013-17.847.013V12.507c0-.874-.738-12.344 12.51-12.507h18.427l.027 33.336z"/><path d="M82.544 39S86 38.887 86 42.5c0 3.612-3.454 3.5-3.454 3.5H75v-6.994L82.544 39zM85 32c0 3.19-3.24 2.997-3.28 2.998H75v-5.996h6.77S85 28.81 85 32z"/></g><path d="M11.888 46.504c-1.447 0-4.216-.2-6.54-.88C2.42 44.765.03 43.383 0 43.37V12.5C0 11.63.26 0 12.49 0H31L31 62.502C31 63.045 31 75 18.433 75H.003V48.655s7.13 1.55 13.216 1.55c0 0 6.853.492 10.643-2.007 3.81-2.512 4.553-7.55 4.553-8.228V25.48h-10.81v14.504c0 .788-.228 6.52-5.718 6.52z" fill="#00A1E4"/><path d="M35.01 28.862V12.496C35.01 11.683 34.173 0 47.498 0h18.5v62.502c0 .543.34 12.494-12.45 12.494H35.01l.26-29.835c.046.04 1.9 3.67 15.253 5 6.338.582 11.984-1.504 11.984-1.504V43.37s-6.552 3.042-11.984 2.3c-2.91-.397-9.492-3.074-9.492-8.172 0-5.098 5.878-7.494 9.493-8.08 5.903-.954 11.983 2.218 11.983 2.218v-5.292s-5.955-1.832-11.983-1.55c-12.284.572-15.428 3.995-15.513 4.068z" fill="#ED1C24"/></g></symbol><symbol id="embed-logo-mastercard" viewBox="0 0 72 42"><title>logo-mastercard</title><g fill="none" fill-rule="evenodd"><path d="M71.008 21.22c.003 11.18-9.376 20.246-20.95 20.25-11.572 0-20.955-9.06-20.958-20.24v-.01C29.097 10.04 38.476.974 50.048.97 61.62.97 71.004 10.03 71.008 21.21v.01z" fill="#F90"/><path d="M21.81.976C10.308 1.046.993 10.09.993 21.22c0 11.174 9.388 20.243 20.954 20.243 5.43 0 10.377-1.998 14.1-5.274v-.002h.003c.762-.67 1.473-1.396 2.126-2.168h-4.293c-.573-.67-1.094-1.366-1.562-2.085h7.405c.45-.696.858-1.42 1.22-2.168H31.1c-.337-.695-.628-1.406-.877-2.127h11.6c.698-2.018 1.077-4.176 1.077-6.42 0-1.488-.167-2.94-.483-4.335h-12.81c.16-.72.36-1.43.6-2.127h11.602c-.26-.743-.562-1.466-.905-2.168h-9.807c.353-.73.754-1.44 1.202-2.126h7.398c-.492-.758-1.037-1.482-1.626-2.168h-4.125c.638-.725 1.34-1.408 2.102-2.045C32.324 2.976 27.375.977 21.945.977h-.135z" fill="#C00"/><path d="M29.48 26.374l.28-1.832c-.152 0-.377.063-.575.063-.776 0-.862-.4-.812-.694L29 20.174h1.18l.285-2.027h-1.113l.227-1.26h-2.232c-.05.047-1.317 7.088-1.317 7.945 0 1.27.74 1.835 1.78 1.826.813-.006 1.447-.224 1.67-.282zM30.188 22.88c0 3.047 2.08 3.77 3.854 3.77 1.636 0 2.356-.353 2.356-.353l.394-2.08s-1.245.53-2.37.53c-2.395 0-1.976-1.725-1.976-1.725h4.534s.293-1.396.293-1.965c0-1.42-.732-3.15-3.18-3.15-2.245 0-3.905 2.335-3.905 4.974zm3.912-3.044c1.26 0 1.027 1.367 1.027 1.478H32.65c0-.14.234-1.478 1.45-1.478zM48.228 26.373l.4-2.35s-1.096.53-1.847.53c-1.58 0-2.216-1.167-2.216-2.42 0-2.546 1.362-3.946 2.877-3.946 1.138 0 2.05.617 2.05.617l.365-2.283s-1.353-.528-2.513-.528c-2.575 0-5.08 2.158-5.08 6.212 0 2.69 1.352 4.464 4.014 4.464.753 0 1.952-.295 1.952-.295zM17.21 17.94c-1.53 0-2.702.475-2.702.475l-.324 1.856s.968-.38 2.43-.38c.832 0 1.44.092 1.44.744 0 .396-.075.542-.075.542s-.656-.053-.96-.053c-1.93 0-3.956.796-3.956 3.194 0 1.89 1.33 2.324 2.154 2.324 1.574 0 2.253-.986 2.29-.99l-.075.825h1.965l.876-5.936c0-2.52-2.274-2.6-3.064-2.6zm.478 4.833c.043.362-.235 2.062-1.578 2.062-.693 0-.873-.51-.873-.814 0-.59.332-1.297 1.966-1.297.38 0 .42.04.485.05zM22.362 26.598c.503 0 3.375.123 3.375-2.74 0-2.678-2.66-2.15-2.66-3.225 0-.536.435-.704 1.227-.704.314 0 1.524.095 1.524.095l.282-1.903s-.783-.17-2.058-.17c-1.65 0-3.326.637-3.326 2.815 0 2.468 2.793 2.22 2.793 3.26 0 .694-.78.75-1.383.75-1.04 0-1.978-.345-1.98-.328l-.298 1.883c.053.016.63.265 2.502.265zM66.708 16.232l-.48 2.885s-.84-1.12-2.155-1.12c-2.045 0-3.748 2.38-3.748 5.116 0 1.766.908 3.497 2.766 3.497 1.338 0 2.078-.9 2.078-.9l-.098.768h2.17l1.705-10.25-2.237.004zm-1.036 5.625c0 1.138-.583 2.66-1.793 2.66-.804 0-1.18-.652-1.18-1.674 0-1.67.777-2.774 1.757-2.774.803 0 1.215.532 1.215 1.787zM5.13 26.487l1.36-7.738.198 7.737h1.537l2.868-7.738-1.27 7.737h2.283l1.76-10.263h-3.533l-2.2 6.297-.114-6.296H4.763L2.98 26.487h2.15zM53.376 17.94c-1.53 0-2.703.475-2.703.475l-.323 1.856s.968-.38 2.43-.38c.832 0 1.44.092 1.44.744 0 .396-.075.542-.075.542s-.655-.053-.96-.053c-1.928 0-3.955.796-3.955 3.194 0 1.89 1.33 2.324 2.153 2.324 1.575 0 2.253-.986 2.29-.99l-.074.825h1.963l.877-5.936c0-2.52-2.274-2.6-3.064-2.6zm.48 4.833c.04.362-.237 2.062-1.58 2.062-.694 0-.873-.51-.873-.814 0-.59.33-1.297 1.966-1.297.38 0 .42.04.485.05zM58.235 26.5c.65-3.566.77-6.463 2.32-5.933.27-1.38.533-1.915.83-2.5 0 0-.14-.028-.43-.028-1 0-1.74 1.318-1.74 1.318l.198-1.21h-2.077L55.944 26.5h2.29zM39.504 26.5c.65-3.566.77-6.463 2.32-5.933.27-1.38.533-1.915.83-2.5 0 0-.14-.028-.43-.028-1 0-1.74 1.318-1.74 1.318l.198-1.21h-2.077L37.213 26.5h2.29z" fill="#FFF"/></g></symbol><symbol id="embed-logo-paypal" viewBox="0 0 180 46"><title>PayPal</title><g fill="none" fill-rule="evenodd"><path d="M32.852 3.733C30.73 1.346 26.89.323 21.978.323H7.723c-1.005 0-1.86.72-2.016 1.697L-.23 39.134c-.117.732.458 1.395 1.21 1.395h8.8l2.21-13.823-.067.433c.157-.977 1.004-1.697 2.008-1.697h4.183c8.215 0 14.648-3.29 16.527-12.807.056-.282.104-.556.146-.824.56-3.517-.004-5.912-1.934-8.08" fill="#003087"/><path d="M140.588 18.394c-.538 3.482-3.235 3.482-5.845 3.482h-1.484l1.04-6.502c.062-.393.406-.682.81-.682h.68c1.777 0 3.455 0 4.32.997.518.596.674 1.482.478 2.704m-1.135-9.087h-9.84c-.675 0-1.247.483-1.352 1.138l-3.978 24.88c-.08.49.307.933.81.933h5.05c.47 0 .87-.337.944-.795l1.13-7.054c.104-.657.677-1.14 1.35-1.14h3.113c6.48 0 10.223-3.092 11.2-9.223.44-2.68.018-4.786-1.255-6.26-1.4-1.622-3.88-2.48-7.172-2.48" fill="#009CDE"/><path d="M70.4 18.394c-.54 3.482-3.236 3.482-5.846 3.482H63.07l1.04-6.502c.064-.393.407-.682.81-.682h.682c1.776 0 3.454 0 4.32.997.517.596.673 1.482.477 2.704m-1.136-9.087h-9.84c-.675 0-1.247.483-1.352 1.138l-3.98 24.88c-.078.49.307.933.81.933h4.7c.673 0 1.245-.482 1.35-1.137l1.075-6.71c.104-.657.677-1.14 1.35-1.14h3.113c6.483 0 10.224-3.092 11.2-9.223.44-2.68.02-4.786-1.254-6.26-1.4-1.622-3.88-2.48-7.172-2.48M92.11 27.325c-.455 2.655-2.592 4.437-5.32 4.437-1.365 0-2.46-.434-3.163-1.254-.697-.813-.96-1.973-.74-3.263.425-2.632 2.597-4.47 5.282-4.47 1.338 0 2.424.437 3.14 1.265.723.835 1.007 2 .8 3.285m6.567-9.043h-4.712c-.403 0-.747.29-.81.683l-.208 1.3-.328-.472c-1.023-1.46-3.297-1.95-5.57-1.95-5.204 0-9.652 3.892-10.517 9.347-.45 2.722.19 5.323 1.755 7.138 1.437 1.667 3.49 2.362 5.934 2.362 4.197 0 6.524-2.657 6.524-2.657l-.21 1.29c-.08.49.305.935.81.935h4.243c.673 0 1.245-.48 1.35-1.137l2.548-15.903c.08-.49-.307-.935-.81-.935" fill="#003087"/><path d="M162.3 27.325c-.456 2.655-2.593 4.437-5.32 4.437-1.366 0-2.46-.434-3.164-1.254-.698-.813-.96-1.973-.738-3.263.423-2.632 2.595-4.47 5.28-4.47 1.34 0 2.425.437 3.142 1.265.722.835 1.006 2 .8 3.285m6.566-9.043h-4.712c-.403 0-.747.29-.81.683l-.208 1.3-.33-.472c-1.02-1.46-3.294-1.95-5.566-1.95-5.205 0-9.653 3.892-10.518 9.347-.45 2.722.19 5.323 1.755 7.138 1.437 1.667 3.49 2.362 5.934 2.362 4.198 0 6.525-2.657 6.525-2.657l-.21 1.29c-.08.49.305.935.81.935h4.243c.674 0 1.246-.48 1.35-1.137l2.55-15.903c.078-.49-.308-.935-.812-.935" fill="#009CDE"/><path d="M123.775 18.282h-4.737c-.453 0-.876.222-1.13.592l-6.534 9.487-2.77-9.116c-.173-.57-.706-.962-1.31-.962h-4.655c-.563 0-.96.546-.777 1.07l5.215 15.094-4.906 6.824c-.384.535.004 1.275.67 1.275h4.732c.448 0 .867-.216 1.124-.58l15.75-22.413c.377-.537-.01-1.27-.673-1.27" fill="#003087"/><path d="M174.42 9.99l-4.038 25.335c-.08.49.306.934.81.934h4.062c.672 0 1.246-.484 1.35-1.14l3.983-24.878c.078-.49-.306-.934-.81-.934h-4.546c-.404 0-.748.29-.81.683" fill="#009CDE"/><path d="M32.852 3.733C30.73 1.346 26.89.323 21.978.323H7.723c-1.005 0-1.86.72-2.016 1.697L-.23 39.134c-.117.732.458 1.395 1.21 1.395h8.8l2.21-13.823-.067.433c.157-.977 1.004-1.697 2.008-1.697h4.183c8.215 0 14.648-3.29 16.527-12.807.056-.282.104-.556.146-.824.56-3.517-.004-5.912-1.934-8.08" fill="#003087"/><path d="M14.367 11.86c.093-.59.477-1.07.992-1.314.233-.11.495-.172.77-.172h11.174c1.324 0 2.558.085 3.686.264.324.05.637.11.942.178.304.066.6.14.886.224.144.04.285.084.423.13.555.18 1.072.394 1.546.643.56-3.52-.003-5.912-1.933-8.08C30.728 1.346 26.89.323 21.978.323H7.722c-1.004 0-1.858.72-2.015 1.697L-.228 39.133c-.118.733.456 1.395 1.208 1.395h8.8l2.21-13.822 2.377-14.847z" fill="#003087"/><path d="M34.786 11.812c-.043.27-.09.542-.146.824-1.88 9.515-8.31 12.807-16.527 12.807H13.93c-1.004 0-1.85.72-2.007 1.697L9.78 40.528l-.607 3.797c-.102.64.4 1.22 1.057 1.22h7.42c.877 0 1.624-.63 1.76-1.483l.074-.373 1.398-8.738.09-.483c.137-.855.884-1.486 1.762-1.486h1.11c7.187 0 12.814-2.878 14.458-11.203.687-3.478.33-6.382-1.484-8.423-.55-.618-1.235-1.128-2.032-1.545" fill="#009CDE"/><path d="M32.82 11.04c-.288-.083-.584-.158-.888-.225-.305-.066-.62-.125-.94-.176-1.13-.18-2.364-.266-3.69-.266H16.13c-.276 0-.537.06-.77.172-.517.244-.9.725-.993 1.314l-2.375 14.847-.07.433c.157-.977 1.005-1.698 2.008-1.698h4.184c8.215 0 14.648-3.29 16.527-12.807.057-.28.104-.554.147-.823-.476-.247-.99-.46-1.546-.643-.137-.046-.278-.09-.42-.13" fill="#012169"/></g></symbol><symbol id="embed-logo-selz" viewBox="0 0 72 42"><title>Selz</title><g fill-rule="evenodd"><path d="M26.86 37.482c.3.678.677 1.295 1.132 1.853.664.814 1.494 1.462 2.49 1.943.996.48 2.158.722 3.486.722.847 0 1.684-.096 2.51-.287.827-.19 1.625-.446 2.395-.764.77-.32 1.505-.684 2.204-1.095.7-.41 1.353-.828 1.96-1.252.455-.322.9-.66 1.34-1.013.075.2.153.393.235.582.505 1.167 1.097 2.096 1.777 2.79.68.692 1.414 1.038 2.204 1.038.497 0 1.03-.07 1.6-.208.57-.138 1.156-.324 1.756-.558.6-.233 1.195-.5 1.787-.798.35-.177.696-.356 1.034-.535.162.162.35.296.563.404.3.15.656.226 1.066.226.38 0 .832-.086 1.352-.26.6.332 1.155.606 1.66.822.506.216.95.393 1.333.53s.69.234.922.292c.233.057.376.086.43.086.67 0 1.385-.086 2.143-.26.76-.172 1.504-.406 2.235-.702.73-.295 1.432-.637 2.1-1.026.67-.39 1.26-.8 1.764-1.232.505-.432.908-.875 1.21-1.33.3-.453.45-.89.45-1.307 0-.245-.038-.493-.113-.745-.075-.252-.184-.48-.328-.68-.144-.203-.322-.368-.534-.498-.212-.13-.447-.194-.707-.194-.343 0-.67.09-.985.27-.315.18-.632.407-.953.68-.322.274-.656.566-1.005.876-.35.31-.724.6-1.128.875-.404.274-.84.5-1.313.68-.47.18-.994.27-1.568.27-.26 0-.565-.05-.913-.15-.35-.1-.68-.213-.995-.335-.314-.123-.587-.235-.82-.335-.232-.1-.355-.152-.37-.152l.104-.432c.123-.173.365-.5.728-.983.362-.483.786-1.052 1.27-1.707.486-.656 1.033-1.43 1.64-2.324.61-.894 1.163-1.694 1.66-2.4.5-.705.94-1.347 1.324-1.923.382-.576.656-1.023.82-1.34.574-.158.984-.328 1.23-.508s.383-.328.41-.444c.082-.345.123-.763.123-1.253 0-.605-.105-1.084-.317-1.437-.212-.353-.557-.53-1.035-.53-.04 0-.096.01-.164.033-.07.02-.188.046-.36.074-.17.03-.42.054-.747.076-.328.022-.766.032-1.312.032h-.626c-.226 0-.476-.007-.75-.02-.354-.016-.7-.106-1.034-.27-.335-.167-.663-.35-.984-.552-.32-.202-.646-.386-.974-.55-.328-.167-.656-.25-.984-.25-.438 0-.912.076-1.425.227-.514.15-1.006.44-1.477.864-.472.426-.9 1.028-1.28 1.806-.384.778-.678 1.794-.883 3.047-.027.173-.048.342-.06.508-.015.167-.022.32-.022.466 0 .345.044.623.133.832.09.208.244.313.463.313.232 0 .492-.16.78-.485.286-.325.64-.832 1.065-1.524.19-.316.365-.56.522-.734.158-.173.335-.302.534-.39.198-.085.44-.136.727-.15.288-.014.65-.022 1.088-.022.178 0 .342.022.492.065.15.042.297.104.44.183l.482.27c.178.1.39.21.636.324l-4.904 7.054-.083-.21c-1.008.803-1.973 1.51-2.894 2.123-.395.262-.804.52-1.23.776-.423.254-.836.48-1.238.677-.402.197-.782.354-1.14.47-.36.117-.677.175-.955.175-.117 0-.24-.083-.373-.25-.13-.17-.256-.395-.373-.68-.117-.284-.215-.604-.296-.962-.08-.357-.12-.725-.12-1.104v-.307c.045-.292.103-.59.176-.898.073-.306.146-.594.22-.864.073-.27.15-.52.23-.754.08-.234.157-.423.23-.57.673-1.312 1.393-2.657 2.16-4.035.77-1.38 1.533-2.78 2.293-4.2.76-1.423 1.49-2.856 2.193-4.3.702-1.443 1.32-2.883 1.853-4.32.534-1.436.958-2.865 1.272-4.287.315-1.422.472-2.818.472-4.19 0-.612-.048-1.213-.143-1.804-.095-.592-.26-1.12-.493-1.587-.234-.467-.556-.842-.965-1.126C57.99.142 57.47 0 56.84 0c-.92 0-1.827.277-2.72.83-.89.555-1.746 1.317-2.565 2.287-.82.97-1.6 2.107-2.347 3.413-.746 1.305-1.437 2.71-2.073 4.21-.636 1.503-1.207 3.07-1.71 4.704-.506 1.633-.94 3.26-1.306 4.878-.367 1.62-.645 3.19-.835 4.714C43.095 26.56 43 27.97 43 29.27c0 1.37.094 2.69.28 3.958-.316.267-.658.54-1.027.82-.79.602-1.63 1.157-2.52 1.667-.89.51-1.806.934-2.746 1.274-.94.34-1.833.508-2.68.508-.27 0-.52-.028-.753-.084-.233-.057-.455-.156-.667-.298-.212-.14-.42-.34-.625-.594-.205-.255-.413-.574-.625-.956 1.23-.34 2.37-.814 3.422-1.422 1.052-.61 1.96-1.303 2.722-2.08.763-.78 1.43-1.714 2.003-2.804.572-1.09.858-2.074.858-2.952 0-.806-.14-1.535-.424-2.187-.284-.65-.676-1.205-1.177-1.666-.502-.46-1.09-.817-1.77-1.072-.678-.255-1.412-.382-2.203-.382-.975 0-1.862.173-2.66.52-.798.347-1.518.814-2.16 1.402-.644.587-1.206 1.267-1.686 2.038l-.153.252c-.44-.663-.955-1.277-1.546-1.844-.92-.884-1.96-1.676-3.126-2.378-1.165-.702-2.36-1.36-3.58-1.976-1.224-.616-2.418-1.213-3.583-1.792-1.165-.58-2.207-1.19-3.126-1.835-.92-.644-1.66-1.343-2.216-2.096-.557-.752-.836-1.606-.836-2.56 0-.566.156-1.138.467-1.717.31-.58.79-1.104 1.433-1.574.644-.472 1.447-.855 2.41-1.152.962-.297 2.095-.445 3.397-.445 1.172 0 2.25.094 3.235.282.984.188 1.827.47 2.53.847.7.376 1.25.843 1.65 1.4.397.558.596 1.206.596 1.944 0 .478-.095.996-.283 1.553-.188.556-.477 1.153-.868 1.79-.42.666-.716 1.256-.89 1.77-.174.514-.26.96-.26 1.336 0 .507.137.887.412 1.14.275.253.63.38 1.064.38.58 0 1.227-.22 1.944-.662.716-.442 1.378-1.12 1.986-2.03.622-.942 1.074-1.847 1.357-2.715.282-.87.423-1.717.423-2.542 0-1.39-.344-2.657-1.03-3.8-.69-1.144-1.597-2.13-2.726-2.954-1.128-.825-2.413-1.462-3.853-1.91C21.95 1.223 20.48 1 18.974 1c-2.373 0-4.443.29-6.208.87-1.766.578-3.24 1.334-4.418 2.268-1.18.934-2.062 1.99-2.648 3.17-.588 1.18-.88 2.378-.88 3.595 0 1.303.278 2.464.835 3.485.557 1.02 1.295 1.944 2.214 2.77.918.824 1.964 1.58 3.136 2.268 1.173.688 2.367 1.343 3.582 1.965 1.216.624 2.41 1.24 3.582 1.847 1.172.608 2.218 1.256 3.137 1.944.92.69 1.657 1.438 2.214 2.248.56.81.837 1.73.837 2.758 0 1.115-.31 2.103-.933 2.965-.623.862-1.433 1.59-2.432 2.183-.998.594-2.127 1.043-3.386 1.347-1.26.304-2.518.456-3.778.456-1.07 0-2.105-.116-3.104-.348-1-.232-1.88-.586-2.648-1.064-.767-.478-1.382-1.086-1.846-1.824-.463-.738-.694-1.614-.694-2.628 0-.463.03-.89.087-1.28.057-.392.12-.75.184-1.076.065-.326.127-.626.185-.9.057-.276.086-.537.086-.783 0-.536-.155-.93-.466-1.183-.31-.254-.7-.38-1.162-.38-.448 0-.933.12-1.454.358-.52.24-1.002.593-1.444 1.064-.44.47-.81 1.057-1.107 1.76-.297.7-.445 1.515-.445 2.442 0 1.795.402 3.362 1.205 4.7.803 1.34 1.87 2.455 3.202 3.346 1.33.89 2.85 1.556 4.56 1.998 1.706.44 3.465.662 5.274.662 1.29 0 2.57-.112 3.843-.337 1.274-.224 2.49-.553 3.647-.988 1.158-.434 2.236-.984 3.235-1.65.697-.465 1.33-.98 1.896-1.543zM31 32c.545 0 1.14-.132 1.784-.395.644-.263 1.243-.6 1.796-1.014.553-.41 1.094-.966 1.625-1.663.53-.697.795-1.274.795-1.73 0-.64-.125-1.165-.375-1.578-.25-.414-.557-.62-.92-.62-.652 0-1.21.114-1.67.34-.463.23-.85.524-1.16.887-.31.363-.56.776-.75 1.238-.19.462-.41 1.035-.66 1.718-.25.683-.39 1.245-.42 1.686-.03.44-.045.817-.045 1.13zm17-6c.675-1.173 1.392-2.492 2.15-3.958.757-1.466 1.474-2.976 2.15-4.53.674-1.554 1.26-3.105 1.755-4.65.495-1.548.81-2.99.945-4.323 0-.426-.01-.79-.034-1.09-.022-.3-.094-.45-.214-.45-.435 0-.904.275-1.406.825-.503.55-1.006 1.293-1.508 2.232-.503.938-.983 2.03-1.44 3.276-.46 1.246-.867 2.573-1.228 3.98-.36 1.408-.645 2.856-.855 4.344C48.105 23.145 48 24.593 48 26z"/></g></symbol><symbol id="embed-logo-visa" viewBox="0 0 136 41"><title>Visa</title><g fill="none" fill-rule="evenodd"><path d="M47.915 40.424L54.8.69h11.012l-6.89 39.734H47.915zM98.86 1.67C96.68.863 93.26 0 88.993 0c-10.88 0-18.546 5.39-18.61 13.113-.062 5.71 5.47 8.894 9.648 10.795 4.286 1.947 5.727 3.19 5.706 4.928-.027 2.664-3.423 3.88-6.588 3.88-4.407 0-6.75-.602-10.365-2.085l-1.42-.63-1.545 8.894c2.572 1.11 7.33 2.07 12.267 2.12 11.575 0 19.09-5.327 19.175-13.575.04-4.52-2.893-7.96-9.245-10.797-3.85-1.838-6.207-3.064-6.182-4.926 0-1.65 1.996-3.417 6.307-3.417 3.6-.055 6.21.717 8.24 1.522l.988.46 1.493-8.613M127.1.728h-8.51c-2.636 0-4.61.708-5.767 3.295L96.47 40.437h11.562s1.89-4.896 2.32-5.97c1.262 0 12.496.016 14.1.016.33 1.39 1.34 5.954 1.34 5.954h10.22L127.098.727zm-13.58 25.61c.91-2.288 4.387-11.107 4.387-11.107-.065.107.904-2.3 1.46-3.79l.744 3.425s2.11 9.485 2.55 11.473h-9.14zM38.68.72L27.9 27.815l-1.15-5.506C24.743 15.96 18.49 9.083 11.5 5.64l9.857 34.75 11.65-.013L50.345.72H38.68" fill="#00249F"/><path d="M17.897.695H.14L0 1.522C13.814 4.812 22.955 12.76 26.75 22.31L22.89 4.05C22.22 1.532 20.29.782 17.896.694" fill="#FFA000"/></g></symbol></svg>